<svg preserveAspectRatio="none" width="100%" height="100%" overflow="visible" style="display: block;" viewBox="0 0 31 31" fill="none" xmlns="http://www.w3.org/2000/svg">
<g id="ri:ai-generate-3d-fill">
<path id="Vector" d="M18.4295 2.98763C17.3632 4.35662 16.7872 6.04387 16.7937 7.77912C16.8003 9.51437 17.389 11.1972 18.4656 12.5581C19.5422 13.9191 21.0443 14.8793 22.7315 15.2851C24.4186 15.6908 26.1932 15.5186 27.7708 14.796V22.6042L15.5 29.7083L3.22917 22.6042V8.39583L15.5 1.29167L18.4295 2.98763ZM5.8125 21.1136L15.5 26.722V15.5L5.8125 9.89029V21.1136ZM23.9346 2.99538C23.9835 2.87445 24.0674 2.77089 24.1756 2.69796C24.2837 2.62504 24.4112 2.58608 24.5417 2.58608C24.6721 2.58608 24.7996 2.62504 24.9078 2.69796C25.0159 2.77089 25.0998 2.87445 25.1487 2.99538L25.4768 3.78588C26.0254 5.12236 27.0656 6.19764 28.3831 6.79029L29.3105 7.20363C29.4291 7.25849 29.5295 7.34615 29.5998 7.45624C29.6702 7.56633 29.7076 7.69426 29.7076 7.82492C29.7076 7.95557 29.6702 8.0835 29.5998 8.19359C29.5295 8.30368 29.4291 8.39134 29.3105 8.44621L28.3288 8.88279C27.0441 9.4593 26.022 10.4962 25.4639 11.789L25.1449 12.5201C25.0952 12.6392 25.0114 12.7409 24.9041 12.8124C24.7968 12.8839 24.6707 12.9221 24.5417 12.9221C24.4127 12.9221 24.2866 12.8839 24.1792 12.8124C24.0719 12.7409 23.9881 12.6392 23.9385 12.5201L23.6207 11.7903C23.0623 10.4965 22.0391 9.45908 20.7532 8.88279L19.7715 8.44621C19.6526 8.3915 19.5518 8.30383 19.4812 8.1936C19.4106 8.08336 19.373 7.95519 19.373 7.82427C19.373 7.69335 19.4106 7.56518 19.4812 7.45495C19.5518 7.34471 19.6526 7.25705 19.7715 7.20233L20.699 6.789C22.0167 6.19692 23.0573 5.12211 23.6065 3.78588L23.9346 2.99538Z" fill="var(--fill-0, white)"/>
</g>
</svg>
