<svg preserveAspectRatio="none" width="100%" height="100%" overflow="visible" style="display: block;" viewBox="0 0 35 35" fill="none" xmlns="http://www.w3.org/2000/svg">
<g id="ri:ai-generate-3d-fill">
<path id="Vector" d="M20.8075 3.37313C19.6036 4.91877 18.9533 6.82372 18.9607 8.78288C18.968 10.742 19.6327 12.642 20.8482 14.1786C22.0637 15.7151 23.7597 16.7992 25.6646 17.2573C27.5694 17.7154 29.5729 17.521 31.3542 16.7052V25.5208L17.5 33.5417L3.64583 25.5208V9.47917L17.5 1.45833L20.8075 3.37313ZM6.5625 23.8379L17.5 30.17V17.5L6.5625 11.1665V23.8379ZM27.0229 3.38188C27.0781 3.24534 27.1729 3.12842 27.295 3.04609C27.4171 2.96376 27.5611 2.91977 27.7083 2.91977C27.8556 2.91977 27.9995 2.96376 28.1217 3.04609C28.2438 3.12842 28.3385 3.24534 28.3937 3.38188L28.7642 4.27438C29.3835 5.78331 30.5579 6.99733 32.0454 7.66646L33.0925 8.13313C33.2264 8.19507 33.3397 8.29404 33.4192 8.41834C33.4986 8.54263 33.5408 8.68707 33.5408 8.83458C33.5408 8.9821 33.4986 9.12653 33.4192 9.25083C33.3397 9.37513 33.2264 9.47409 33.0925 9.53604L31.9842 10.029C30.5337 10.6799 29.3796 11.8505 28.7496 13.3102L28.3894 14.1356C28.3333 14.27 28.2387 14.3848 28.1175 14.4656C27.9963 14.5464 27.854 14.5895 27.7083 14.5895C27.5627 14.5895 27.4203 14.5464 27.2991 14.4656C27.1779 14.3848 27.0834 14.27 27.0273 14.1356L26.6685 13.3117C26.0381 11.8509 24.8829 10.6796 23.431 10.029L22.3227 9.53604C22.1884 9.47427 22.0747 9.37529 21.9949 9.25083C21.9152 9.12638 21.8728 8.98167 21.8728 8.83385C21.8728 8.68604 21.9152 8.54133 21.9949 8.41688C22.0747 8.29242 22.1884 8.19344 22.3227 8.13167L23.3698 7.665C24.8576 6.99653 26.0325 5.78303 26.6525 4.27438L27.0229 3.38188Z" fill="var(--fill-0, white)"/>
</g>
</svg>
