<svg preserveAspectRatio="none" width="100%" height="100%" overflow="visible" style="display: block;" viewBox="0 0 35 35" fill="none" xmlns="http://www.w3.org/2000/svg">
<g id="Group 1171281742">
<circle id="Ellipse 915" cx="17.5" cy="17.5" r="17" fill="var(--fill-0, white)" stroke="var(--stroke-0, #AED3D7)"/>
<g id="iconamoon:profile-fill">
<path id="Vector" fill-rule="evenodd" clip-rule="evenodd" d="M15 13.25C15 12.4544 15.3161 11.6913 15.8787 11.1287C16.4413 10.5661 17.2044 10.25 18 10.25C18.7956 10.25 19.5587 10.5661 20.1213 11.1287C20.6839 11.6913 21 12.4544 21 13.25C21 14.0456 20.6839 14.8087 20.1213 15.3713C19.5587 15.9339 18.7956 16.25 18 16.25C17.2044 16.25 16.4413 15.9339 15.8787 15.3713C15.3161 14.8087 15 14.0456 15 13.25ZM15 17.75C14.0054 17.75 13.0516 18.1451 12.3483 18.8483C11.6451 19.5516 11.25 20.5054 11.25 21.5C11.25 22.0967 11.4871 22.669 11.909 23.091C12.331 23.5129 12.9033 23.75 13.5 23.75H22.5C23.0967 23.75 23.669 23.5129 24.091 23.091C24.5129 22.669 24.75 22.0967 24.75 21.5C24.75 20.5054 24.3549 19.5516 23.6517 18.8483C22.9484 18.1451 21.9946 17.75 21 17.75H15Z" fill="var(--fill-0, #35919B)"/>
</g>
</g>
</svg>
