<svg preserveAspectRatio="none" width="100%" height="100%" overflow="visible" style="display: block;" viewBox="0 0 18 18" fill="none" xmlns="http://www.w3.org/2000/svg">
<g id="fluent:document-24-light">
<path id="Vector" d="M3.75 3C3.75 2.80109 3.82902 2.61032 3.96967 2.46967C4.11032 2.32902 4.30109 2.25 4.5 2.25H9V6C9 6.39782 9.15804 6.77936 9.43934 7.06066C9.72064 7.34196 10.1022 7.5 10.5 7.5H14.25V15C14.25 15.1989 14.171 15.3897 14.0303 15.5303C13.8897 15.671 13.6989 15.75 13.5 15.75H4.5C4.30109 15.75 4.11032 15.671 3.96967 15.5303C3.82902 15.3897 3.75 15.1989 3.75 15V3ZM14.9985 7.155C15.0017 7.11474 14.9984 7.07421 14.9888 7.035C14.9485 6.70222 14.798 6.3925 14.5613 6.15525L10.3448 1.9395C10.1078 1.70258 9.79836 1.55182 9.46575 1.51125C9.42605 1.5014 9.38501 1.4981 9.34425 1.5015L9.285 1.5H4.5C4.10218 1.5 3.72064 1.65804 3.43934 1.93934C3.15804 2.22064 3 2.60218 3 3V15C3 15.3978 3.15804 15.7794 3.43934 16.0607C3.72064 16.342 4.10218 16.5 4.5 16.5H13.5C13.8978 16.5 14.2794 16.342 14.5607 16.0607C14.842 15.7794 15 15.3978 15 15V7.21575L14.9985 7.15575M9.75 2.41275C9.7725 2.43075 9.794 2.45 9.8145 2.4705L14.0303 6.68625C14.0503 6.70625 14.0695 6.72775 14.088 6.75075H10.5C10.3011 6.75075 10.1103 6.67173 9.96967 6.53108C9.82902 6.39043 9.75 6.19966 9.75 6.00075V2.41275Z" fill="var(--fill-0, white)"/>
</g>
</svg>
