<svg width="22" height="23" viewBox="0 0 22 23" fill="none" xmlns="http://www.w3.org/2000/svg">
<path d="M12.2583 1.36771C11.3984 2.47174 10.9339 3.83242 10.9392 5.23182C10.9444 6.63121 11.4192 7.98835 12.2874 9.08587C13.1556 10.1834 14.3671 10.9578 15.7277 11.285C17.0883 11.6122 18.5194 11.4733 19.7917 10.8906V17.1875L9.89583 22.9167L0 17.1875L0 5.72917L9.89583 0L12.2583 1.36771ZM2.08333 15.9854L9.89583 20.5083L9.89583 11.4583L2.08333 6.93438L2.08333 15.9854ZM16.6979 1.37396C16.7374 1.27644 16.805 1.19292 16.8923 1.13411C16.9795 1.0753 17.0823 1.04388 17.1875 1.04388C17.2927 1.04388 17.3955 1.0753 17.4827 1.13411C17.57 1.19292 17.6376 1.27644 17.6771 1.37396L17.9417 2.01146C18.3841 3.08927 19.2229 3.95643 20.2854 4.43438L21.0333 4.76771C21.129 4.81196 21.2099 4.88265 21.2667 4.97143C21.3234 5.06021 21.3536 5.16338 21.3536 5.26875C21.3536 5.37412 21.3234 5.47729 21.2667 5.56607C21.2099 5.65485 21.129 5.72554 21.0333 5.76979L20.2417 6.12188C19.2056 6.5868 18.3813 7.423 17.9313 8.46563L17.674 9.05521C17.6339 9.15122 17.5664 9.23322 17.4798 9.29091C17.3932 9.34859 17.2915 9.37938 17.1875 9.37938C17.0835 9.37938 16.9818 9.34859 16.8952 9.29091C16.8086 9.23322 16.7411 9.15122 16.701 9.05521L16.4448 8.46667C15.9945 7.42328 15.1693 6.58663 14.1323 6.12188L13.3406 5.76979C13.2447 5.72567 13.1635 5.65497 13.1065 5.56607C13.0495 5.47717 13.0193 5.37381 13.0193 5.26823C13.0193 5.16265 13.0495 5.05928 13.1065 4.97039C13.1635 4.88149 13.2447 4.81079 13.3406 4.76667L14.0885 4.43333C15.1513 3.95585 15.9905 3.08907 16.4333 2.01146L16.6979 1.37396Z" fill="#35919B"/>
</svg>
