<svg preserveAspectRatio="none" width="100%" height="100%" overflow="visible" style="display: block;" viewBox="0 0 40 40" fill="none" xmlns="http://www.w3.org/2000/svg">
<g id="Icon">
<path id="Text" d="M14.2086 31.9422C14.2083 32.7703 13.5367 33.4419 12.7086 33.4422H4.52891C3.70063 33.4422 3.02915 32.7704 3.02891 31.9422V25.5359C3.02896 23.345 3.42874 21.0765 4.22129 18.7332L4.22227 18.7303C5.0373 16.3667 6.14087 14.1389 7.53086 12.0467V12.0457C8.78831 10.1632 10.1831 8.53696 11.7154 7.17168C12.2231 6.71959 12.961 6.6912 13.5094 7.05645L18.0074 10.0535C18.6921 10.5098 18.8738 11.4224 18.4527 12.1111C17.3061 13.9857 16.326 15.9321 15.5152 17.951L15.5162 17.952C14.6237 20.2084 14.1855 22.709 14.2086 25.4598V31.9422ZM32.1275 31.9422C32.1273 32.7704 31.4558 33.4422 30.6275 33.4422H22.4488C21.6206 33.4422 20.9491 32.7704 20.9488 31.9422V25.5359C20.9489 23.345 21.3486 21.0766 22.1412 18.7332L22.1422 18.7303C22.9572 16.3669 24.0599 14.1387 25.4498 12.0467L25.4508 12.0457C26.7082 10.1633 28.1021 8.53693 29.6344 7.17168C30.1421 6.71934 30.8809 6.69104 31.4293 7.05645L35.9273 10.0535C36.612 10.5098 36.7936 11.4225 36.3727 12.1111C35.226 13.9856 34.2459 15.9321 33.4352 17.951L33.4361 17.952C32.5436 20.2084 32.1044 22.709 32.1275 25.4598V31.9422Z" fill="var(--fill-0, #35919B)" stroke="var(--stroke-0, #35919B)"/>
</g>
</svg>
