<svg preserveAspectRatio="none" width="100%" height="100%" overflow="visible" style="display: block;" viewBox="0 0 18 18" fill="none" xmlns="http://www.w3.org/2000/svg">
<g id="material-symbols-light:track-changes-rounded">
<path id="Vector" d="M6.3705 15.2175C5.5495 14.862 4.835 14.3805 4.227 13.773C3.6195 13.165 3.138 12.4505 2.7825 11.6295C2.427 10.8085 2.2495 9.932 2.25 9C2.2505 8.068 2.428 7.1915 2.7825 6.3705C3.138 5.5495 3.61975 4.83525 4.22775 4.22775C4.83525 3.61925 5.5495 3.1375 6.3705 2.7825C7.1915 2.4275 8.068 2.25 9 2.25C9.107 2.25 9.19625 2.28575 9.26775 2.35725C9.33925 2.42875 9.375 2.518 9.375 2.625V8.355C9.504 8.435 9.59875 8.529 9.65925 8.637C9.71975 8.7455 9.75 8.8665 9.75 9C9.75 9.201 9.67525 9.37625 9.52575 9.52575C9.37625 9.67525 9.201 9.75 9 9.75C8.799 9.75 8.62375 9.67525 8.47425 9.52575C8.32475 9.37625 8.25 9.201 8.25 9C8.25 8.8665 8.28025 8.74475 8.34075 8.63475C8.40125 8.52475 8.496 8.43175 8.625 8.35575V6.036C7.879 6.1245 7.255 6.44875 6.753 7.00875C6.251 7.56875 6 8.2325 6 9C6 9.825 6.29375 10.5312 6.88125 11.1187C7.46875 11.7062 8.175 12 9 12C9.825 12 10.5312 11.7062 11.1187 11.1187C11.7062 10.5312 12 9.825 12 9C12 8.617 11.9315 8.2595 11.7945 7.9275C11.6575 7.5945 11.474 7.29325 11.244 7.02375C11.177 6.93575 11.1425 6.84325 11.1405 6.74625C11.1385 6.64875 11.1772 6.56025 11.2567 6.48075C11.3397 6.39775 11.4315 6.35875 11.532 6.36375C11.6325 6.36875 11.7212 6.41525 11.7982 6.50325C12.0952 6.84275 12.3282 7.22225 12.4972 7.64175C12.6662 8.06125 12.7505 8.514 12.75 9C12.75 10.0385 12.3847 10.9232 11.6542 11.6542C10.9237 12.3852 10.039 12.7505 9 12.75C7.961 12.7495 7.0765 12.3842 6.3465 11.6542C5.6165 10.9242 5.251 10.0395 5.25 9C5.25 8.0195 5.575 7.176 6.225 6.4695C6.875 5.763 7.675 5.3655 8.625 5.277V3.009C7.051 3.1005 5.72 3.72075 4.632 4.86975C3.544 6.01875 3 7.3955 3 9C3 10.675 3.58125 12.0937 4.74375 13.2562C5.90625 14.4187 7.325 15 9 15C10.675 15 12.0937 14.4187 13.2562 13.2562C14.4187 12.0937 15 10.675 15 9C15 8.2075 14.862 7.46775 14.586 6.78075C14.31 6.09375 13.9197 5.483 13.4152 4.9485C13.3352 4.863 13.288 4.7645 13.2735 4.653C13.259 4.5415 13.2932 4.44425 13.3762 4.36125C13.4592 4.27825 13.5533 4.2425 13.6583 4.254C13.7633 4.2655 13.8557 4.31375 13.9357 4.39875C14.4982 5.01375 14.9413 5.7095 15.2648 6.486C15.5883 7.263 15.75 8.101 15.75 9C15.75 9.932 15.5725 10.8085 15.2175 11.6295C14.862 12.4505 14.3805 13.1648 13.773 13.7723C13.165 14.3803 12.4505 14.8617 11.6295 15.2167C10.8085 15.5722 9.932 15.75 9 15.75C8.068 15.75 7.1915 15.5725 6.3705 15.2175Z" fill="var(--fill-0, white)"/>
</g>
</svg>
